<?xml version="1.0" encoding="utf-8"?>
<!-- Generator: Adobe Illustrator 25.0.1, SVG Export Plug-In . SVG Version: 6.00 Build 0)  -->
<svg version="1.1" id="图层_1" xmlns="http://www.w3.org/2000/svg" xmlns:xlink="http://www.w3.org/1999/xlink" x="0px" y="0px"
	 viewBox="0 0 798 273" style="enable-background:new 0 0 798 273;" xml:space="preserve">
<style type="text/css">
	.st0{fill-rule:evenodd;clip-rule:evenodd;}
	.st1{filter:url(#Adobe_OpacityMaskFilter);}
	.st2{fill-rule:evenodd;clip-rule:evenodd;fill:#FFFFFF;}
	.st3{mask:url(#mask-2_1_);fill-rule:evenodd;clip-rule:evenodd;}
	.st4{filter:url(#Adobe_OpacityMaskFilter_1_);}
	.st5{mask:url(#mask-2_2_);fill-rule:evenodd;clip-rule:evenodd;}
	.st6{filter:url(#Adobe_OpacityMaskFilter_2_);}
	.st7{mask:url(#mask-2_3_);fill-rule:evenodd;clip-rule:evenodd;}
	.st8{filter:url(#Adobe_OpacityMaskFilter_3_);}
	.st9{mask:url(#mask-2_4_);fill-rule:evenodd;clip-rule:evenodd;}
	.st10{filter:url(#Adobe_OpacityMaskFilter_4_);}
	.st11{mask:url(#mask-2_5_);fill-rule:evenodd;clip-rule:evenodd;}
	.st12{filter:url(#Adobe_OpacityMaskFilter_5_);}
	.st13{mask:url(#mask-2_6_);fill-rule:evenodd;clip-rule:evenodd;}
	.st14{filter:url(#Adobe_OpacityMaskFilter_6_);}
	.st15{mask:url(#mask-2_7_);fill-rule:evenodd;clip-rule:evenodd;}
	.st16{filter:url(#Adobe_OpacityMaskFilter_7_);}
	.st17{mask:url(#mask-2_8_);fill-rule:evenodd;clip-rule:evenodd;}
	.st18{fill:#006DFF;}
	.st19{fill:#008AFF;}
	.st20{fill:#009EFF;}
</style>
<g id="编组" transform="translate(278.000000, 41.000000)">
	<path id="Fill-1" class="st0" d="M95.9,41.3c4-6.7,8.7-17.6,11.3-25.3l8,3.2c-4,8.4-8.6,18.4-12.7,25L95.9,41.3z M79.7,39.5
		c-1.1-4.9-4-13-6.7-19l6.7-2.3c2.9,6,6,13.9,7.2,18.6L79.7,39.5z M56,39.8c-1.5-4.4-5-11.4-8.4-16.4l6.8-2.5
		c3.6,5.1,7.2,11.8,8.7,15.9L56,39.8z M116.9,8.8c-18.1,4.8-47.4,7.6-71.2,9c-0.3-1.9-1.5-4.9-2.4-6.9C66.8,9.4,95.8,6.3,111.4,2
		L116.9,8.8z M85,108.1h22.2V85.3h8.2V122h-8.2v-6.3H46.3V86.3h8v21.8h22.2V79H42.2v-7.7h34.4V54.1H58c-3.2,4.8-7,9.1-10.6,12.4
		c-1.3-1.3-4.6-3.9-6.6-4.8c6.8-5.5,12.5-13.5,15.8-22.2l7.8,1.9c-0.7,1.6-1.3,3.3-2.1,4.9h54.1v7.8H85v17.1h37V79H85V108.1z
		 M38,85.5l1.3,8c-12.9,4.8-26.4,9.8-37,13.6L0,98.7c4.7-1.5,10.2-3.5,16.3-5.5V56.4H2.7v-8.3h13.7V17.9H0.5V9.8H39v8.2H24.5v30.2
		h12.1v8.3H24.5v33.9L38,85.5z"/>
	<path id="Fill-3" class="st0" d="M231.5,92.5c9,7,19.5,17.1,24.5,24l-7.2,5.1c-4.6-7-15-17.3-24-24.5L231.5,92.5z M201.3,81h31
		V67.6h-31V81z M201.3,60.4h31V47.3h-31V60.4z M201.3,39.9h31V27.2h-31V39.9z M255.6,89.2H177V81h15.7V27.2h-13.1V19h13.1V0h8.6v19
		h31V0h8.7v19h12.3v8.2H241V81h14.6V89.2z M207.7,96.6c-6.8,9.2-17.4,18.9-27.8,25.4c-1.3-1.7-3.9-4.2-5.8-5.8
		c10-6.2,20.3-15.7,26-24L207.7,96.6z M175.6,94.5c-14.2,4.6-29.3,9.4-40.8,12.9l-1.7-8.6c5-1.2,11-3.1,17.7-5.1V56.1h-15.1v-8.3
		h15.1V17.7h-16.2V9.2h41.2v8.4H159v30.1h13.8v8.3H159v35.2c5.1-1.6,10.3-3.2,15.5-5L175.6,94.5z"/>
	<path id="Fill-5" class="st0" d="M375,3.6c-2.8,5.5-5.9,11.3-8.4,15.2l-6.7-2.4c2.3-4.3,5.5-10.9,6.8-15.3L375,3.6z M322.8,18.8
		c-0.9-4.3-3.6-10.8-6.7-15.6l6.7-2.3c3.3,4.7,6.3,10.9,7.3,15.2L322.8,18.8z M312,102.1h50v-6.7h-50V102.1z M279.3,36.1h17.5V12.9
		h-17.5V36.1z M296.8,67.9V44.2h-17.5v8.1c0,4.8,0,10-0.3,15.6H296.8z M367.1,45.5c5.5,7.1,13.2,13,21.9,15.8
		c-2,1.6-4.4,4.5-5.6,6.5c-10.1-4.4-19.3-12.8-24.8-22.4h-24.4c-2.8,4.4-6.1,8.5-9.9,12.1h43.1c-1.3,7.1-3.2,15.2-4.8,21.3h18
		c0,0-0.1,2.4-0.3,3.5c-2,22.2-4.1,31.3-7.6,34.6c-2.1,2.1-4.4,2.8-7.9,3.1c-3.2,0.1-9.1,0.1-15.3-0.3c-0.1-2.3-0.9-5.2-2.3-7.3
		c6.4,0.5,12.3,0.7,14.5,0.7c2.1,0,3.5-0.1,4.5-1.1c2.3-2.4,4.1-9.3,6-26.2h-53.5c1.6-5.2,3.3-12.6,4.4-18.6l7.7,0.7
		c-0.7,3.6-1.6,7.5-2.4,11h26c1.2-4.4,2.5-9.7,3.6-14.6h-35.9v-4.7c-3.9,3.5-8,6.7-12.8,9.5c-0.8-1.2-3.2-3.9-4.9-5.6v46.3
		c0,4.7-1.1,6.9-3.9,8.4c-3.1,1.3-7.6,1.5-15.3,1.5c-0.4-2-1.3-5.5-2.5-7.6c5.6,0.1,10.5,0.1,11.9,0c1.6,0,2.1-0.5,2.1-2.3V76.1
		h-18.1c-0.9,15.4-3.2,32.1-8,44.9c-1.3-1.2-4.7-3.2-6.7-3.9c7.2-18.9,7.7-45.5,7.7-64.8V4.7h32.8v57.9c8-4.5,14.5-10.2,19.9-17
		h-17.3v-7.2h22.3c2.3-3.6,4.3-7.7,5.9-11.8h-23.7v-7.1h26.3c1.9-6,3.3-12.5,4.4-19.4l8.1,1.1c-1.2,6.5-2.7,12.6-4.3,18.4h36.4v7.1
		h-38.8c-1.6,4.1-3.2,8.3-5.2,11.8h48.3v7.2H367.1z"/>
	<path id="Fill-7" class="st0" d="M512.7,77.1c-6.5-5.9-19.2-14.2-30.7-20.8c3.1,32.3,10.3,52.7,25.1,52.6c4,0,5.5-8.2,6-23.2
		c2,1.9,4.8,4,6.9,5.1c-1.3,20.8-4.1,27.2-13.3,27.2c-27.8,0-34.2-38.5-35.6-100.9h-69V8h77.8c0.1,13.1,0.5,25.5,1.2,36.5
		c9.5-7.8,20.2-18.1,26.8-26l8.1,4.4c-8.7,9.1-19.9,19.3-29.9,27c11.6,6.3,24.6,14.2,31.4,20.3L512.7,77.1z"/>
	<path id="Fill-9" class="st0" d="M14.2,164.9L2,140h4.9l5.4,11.9c1.4,3,2.6,5.9,4.1,9h0.2c1.4-3.1,2.8-5.9,4.1-9l5.5-11.9H31
		l-12.2,24.9V181h-4.6V164.9z"/>
	<path id="Fill-11" class="st0" d="M64.9,164.4l-2.1-6.7c-1.6-4.6-2.8-9.1-4.2-13.9h-0.2c-1.3,4.9-2.7,9.2-4.2,13.9l-2.1,6.7H64.9z
		 M66,168.1H50.8L46.6,181H42l13.9-41H61l14,41h-4.9L66,168.1z"/>
	<path id="Fill-13" class="st0" d="M119.2,160.8c0-10.4-5-16.8-12.7-16.8c-7.6,0-12.7,6.4-12.7,16.8c0,10.4,5,17.1,12.7,17.1
		C114.2,178,119.2,171.3,119.2,160.8 M89,160.8c0-12.9,7.2-20.8,17.5-20.8c10.3,0,17.5,7.9,17.5,20.8c0,13-7.2,21.2-17.5,21.2
		C96.2,182,89,173.8,89,160.8"/>
	<path id="Fill-15" class="st0" d="M159.1,177.9c7.5,0,12.5-6.7,12.5-17.2c0-10.3-4.9-16.7-12.5-16.7c-7.5,0-12.4,6.4-12.4,16.7
		C146.7,171.2,151.6,177.9,159.1,177.9L159.1,177.9z M177,190.2c-1.2,0.4-3.3,0.8-5.6,0.8c-7.3,0-12.4-4-14.6-9.4
		c-8.8-1.2-14.8-9-14.8-20.9c0-12.8,7.1-20.7,17.1-20.7c10.1,0,17.2,7.9,17.2,20.7c0,11.7-5.9,19.5-14.5,20.8
		c1.8,3.7,5.6,5.6,10.1,5.6c1.8,0,3.2-0.3,4.2-0.5L177,190.2z"/>
	<g id="Clip-18">
	</g>
	<defs>
		<filter id="Adobe_OpacityMaskFilter" filterUnits="userSpaceOnUse" x="196" y="140" width="5" height="41">
			<feColorMatrix  type="matrix" values="1 0 0 0 0  0 1 0 0 0  0 0 1 0 0  0 0 0 1 0"/>
		</filter>
	</defs>
	<mask maskUnits="userSpaceOnUse" x="196" y="140" width="5" height="41" id="mask-2_1_">
		<g class="st1">
			<polygon id="path-1_1_" class="st2" points="0,191 520,191 520,0 0,0 			"/>
		</g>
	</mask>
	<polygon id="Fill-17" class="st3" points="196,181 201,181 201,140 196,140 	"/>
	<defs>
		<filter id="Adobe_OpacityMaskFilter_1_" filterUnits="userSpaceOnUse" x="220" y="140" width="30" height="41">
			<feColorMatrix  type="matrix" values="1 0 0 0 0  0 1 0 0 0  0 0 1 0 0  0 0 0 1 0"/>
		</filter>
	</defs>
	<mask maskUnits="userSpaceOnUse" x="220" y="140" width="30" height="41" id="mask-2_2_">
		<g class="st4">
			<polygon id="path-1_2_" class="st2" points="0,191 520,191 520,0 0,0 			"/>
		</g>
	</mask>
	<polygon id="Fill-19" class="st5" points="232.6,143.9 220,143.9 220,140 250,140 250,143.9 237.3,143.9 237.3,181 232.6,181 	"/>
	<defs>
		<filter id="Adobe_OpacityMaskFilter_2_" filterUnits="userSpaceOnUse" x="268" y="140" width="24" height="41">
			<feColorMatrix  type="matrix" values="1 0 0 0 0  0 1 0 0 0  0 0 1 0 0  0 0 0 1 0"/>
		</filter>
	</defs>
	<mask maskUnits="userSpaceOnUse" x="268" y="140" width="24" height="41" id="mask-2_3_">
		<g class="st6">
			<polygon id="path-1_3_" class="st2" points="0,191 520,191 520,0 0,0 			"/>
		</g>
	</mask>
	<polygon id="Fill-20" class="st7" points="268,140 291.4,140 291.4,143.9 272.7,143.9 272.7,157.4 288.4,157.4 288.4,161.3 
		272.7,161.3 272.7,177.1 292,177.1 292,181 268,181 	"/>
	<defs>
		<filter id="Adobe_OpacityMaskFilter_3_" filterUnits="userSpaceOnUse" x="312" y="140" width="29" height="41">
			<feColorMatrix  type="matrix" values="1 0 0 0 0  0 1 0 0 0  0 0 1 0 0  0 0 0 1 0"/>
		</filter>
	</defs>
	<mask maskUnits="userSpaceOnUse" x="312" y="140" width="29" height="41" id="mask-2_4_">
		<g class="st8">
			<polygon id="path-1_4_" class="st2" points="0,191 520,191 520,0 0,0 			"/>
		</g>
	</mask>
	<path id="Fill-21" class="st9" d="M312,140h4.8l15.6,26.5l4.5,8.4h0.3c-0.3-4.1-0.6-8.6-0.6-12.8V140h4.5v41h-4.9l-15.5-26.5
		l-4.5-8.4h-0.3c0.2,4.1,0.6,8.2,0.6,12.5V181H312V140z"/>
	<defs>
		<filter id="Adobe_OpacityMaskFilter_4_" filterUnits="userSpaceOnUse" x="362" y="140" width="31" height="42">
			<feColorMatrix  type="matrix" values="1 0 0 0 0  0 1 0 0 0  0 0 1 0 0  0 0 0 1 0"/>
		</filter>
	</defs>
	<mask maskUnits="userSpaceOnUse" x="362" y="140" width="31" height="42" id="mask-2_5_">
		<g class="st10">
			<polygon id="path-1_5_" class="st2" points="0,191 520,191 520,0 0,0 			"/>
		</g>
	</mask>
	<path id="Fill-22" class="st11" d="M362,161c0-13,7.8-21,18.7-21c5.7,0,9.4,2.5,11.8,4.9l-2.6,3c-2.1-2.2-4.8-3.9-9.1-3.9
		c-8.6,0-14,6.4-14,16.8c0,10.5,5.1,17.1,14,17.1c3.1,0,6.1-0.9,7.8-2.5v-11.1h-9v-3.8H393v16.8c-2.6,2.7-7.1,4.7-12.6,4.7
		C369.6,182,362,174.1,362,161"/>
	<defs>
		<filter id="Adobe_OpacityMaskFilter_5_" filterUnits="userSpaceOnUse" x="413" y="140" width="24" height="41">
			<feColorMatrix  type="matrix" values="1 0 0 0 0  0 1 0 0 0  0 0 1 0 0  0 0 0 1 0"/>
		</filter>
	</defs>
	<mask maskUnits="userSpaceOnUse" x="413" y="140" width="24" height="41" id="mask-2_6_">
		<g class="st12">
			<polygon id="path-1_6_" class="st2" points="0,191 520,191 520,0 0,0 			"/>
		</g>
	</mask>
	<polygon id="Fill-23" class="st13" points="413,140 437,140 437,143.9 417.8,143.9 417.8,158.4 434.1,158.4 434.1,162.3 
		417.8,162.3 417.8,181 413,181 	"/>
	<defs>
		<filter id="Adobe_OpacityMaskFilter_6_" filterUnits="userSpaceOnUse" x="455" y="140" width="24" height="41">
			<feColorMatrix  type="matrix" values="1 0 0 0 0  0 1 0 0 0  0 0 1 0 0  0 0 0 1 0"/>
		</filter>
	</defs>
	<mask maskUnits="userSpaceOnUse" x="455" y="140" width="24" height="41" id="mask-2_7_">
		<g class="st14">
			<polygon id="path-1_7_" class="st2" points="0,191 520,191 520,0 0,0 			"/>
		</g>
	</mask>
	<polygon id="Fill-24" class="st15" points="455,140 478.4,140 478.4,143.9 459.7,143.9 459.7,157.4 475.4,157.4 475.4,161.3 
		459.7,161.3 459.7,177.1 479,177.1 479,181 455,181 	"/>
	<defs>
		<filter id="Adobe_OpacityMaskFilter_7_" filterUnits="userSpaceOnUse" x="498" y="140" width="5" height="41">
			<feColorMatrix  type="matrix" values="1 0 0 0 0  0 1 0 0 0  0 0 1 0 0  0 0 0 1 0"/>
		</filter>
	</defs>
	<mask maskUnits="userSpaceOnUse" x="498" y="140" width="5" height="41" id="mask-2_8_">
		<g class="st16">
			<polygon id="path-1_8_" class="st2" points="0,191 520,191 520,0 0,0 			"/>
		</g>
	</mask>
	<polygon id="Fill-25" class="st17" points="498,181 503,181 503,140 498,140 	"/>
</g>
<path class="st18" d="M118.1,0L-0.1,68.2v136.5L118.1,273l76.5-44.2l41.7,24.1v-48.7l-42.1-24.3l42.1-24.3V68.2L118.1,0z
	 M118.1,48.7l54.9,31.7L122,109.9L67,78.2L118.1,48.7z M42.1,112.5l37.7,21.8L42.1,156V112.5z M194.2,179.9L194.2,179.9l-0.6,0.9
	l-75.5,43.6l-54.9-31.7l54.9-31.7l76-43.9V179.9z"/>
<path class="st19" d="M118.1,136.5L-0.1,68.3v136.5L118.1,273v-48.7l-54.9-31.7l54.9-31.7V136.5z M42.1,156v-43.6l37.7,21.8
	L42.1,156z"/>
<polygon class="st18" points="236.4,155.6 194.2,179.9 236.4,204.2 236.4,204.8 194.6,228.8 118.1,273 118.1,224.3 193.6,180.7 
	194.1,179.8 194.2,179.9 194.2,117 118.1,160.8 118.1,136.5 236.4,68.3 "/>
<path class="st20" d="M118.1,0L-0.1,68.2l118.2,68.3l118.2-68.3L118.1,0z M67,78.2l51.1-29.5l54.9,31.7L122,109.9L67,78.2z"/>
</svg>
