<?xml version="1.0" encoding="UTF-8"?>
<svg width="51px" height="51px" viewBox="0 0 51 51" version="1.1" xmlns="http://www.w3.org/2000/svg" xmlns:xlink="http://www.w3.org/1999/xlink">
    <title>编组 2</title>
    <g id="控件" stroke="none" stroke-width="1" fill="none" fill-rule="evenodd">
        <g id="编组-2">
            <rect id="矩形" x="0" y="0" width="51" height="51"></rect>
            <g id="编组" transform="translate(3.000000, 0.000000)" fill-rule="nonzero">
                <path d="M22,0 L0,12.7488181 L0,38.249606 L22,51 L36.2384615,42.7487253 L44,47.2462689 L44,38.1487501 L36.1618524,33.6055062 L44,29.0622624 L44,12.7488181 L22,0 Z M12.4913658,14.608349 L22,9.09751876 L32.2260597,15.0243797 L22.7172685,20.53521 L12.4913658,14.608349 Z M7.84929356,21.0158515 L14.8681319,25.0845998 L7.84929356,29.1520872 L7.84929356,21.0158515 Z M11.7756672,35.9756203 L22,30.0486018 L36.1507065,21.8480703 L36.1507065,33.5992028 L36.1395604,33.5928993 L36.0422292,33.7630936 L22,41.9010629 L11.7756672,35.9756203 Z" id="Fill-1" fill="#0B6BFC"></path>
                <path d="M0,38.2972267 L21.907173,51 L21.907173,41.9339254 L11.7258245,36.0298837 L21.907173,30.1242718 L21.907173,25.5928831 L0,12.8901099 L0,38.2972267 Z M7.81601786,21.1241449 L14.8053971,25.178198 L7.81601786,29.2309952 L7.81601786,21.1241449 Z" id="Fill-2" fill="#1C89FC"></path>
                <polygon id="Fill-3" fill="#0B6BFC" points="21.907173 25.5928831 21.907173 30.1242718 35.9981719 21.9532011 35.9981719 33.6620492 35.9870729 33.6557683 35.8901523 33.825348 21.907173 41.9339254 21.907173 51 36.0855566 42.7785265 43.814346 38.2972267 43.814346 38.1951649 36.0092708 33.6683298 43.814346 29.1414947 43.814346 12.8901099"></polygon>
                <path d="M22,0 L0,12.7951217 L22,25.5934066 L44,12.7951217 L22,0 Z M12.4913658,14.6614065 L22,9.13056088 L32.2260597,15.0789481 L22.7172685,20.6097936 L12.4913658,14.6614065 Z" id="Fill-4" fill="#279CFB"></path>
            </g>
        </g>
    </g>
</svg>